inDegrees=no
num_controls=7
num_derivatives=13
num_iterations=187
num_multipliers=7
num_parameters=0
num_slacks=7
num_states=26
objective=5.818325
objective_accelerations=0.659068
objective_balance=0.022442
objective_effort=0.478730
objective_height=4.564017
objective_ligament=0.094067
solver_duration=1559.877052
status=Solve_Succeeded
success=true
DataType=double
version=3
OpenSimVersion=4.4-2022-07-23-0e9fedc
endheader
time	/jointset/ground_pelvis/pelvis_tilt/value	/jointset/ground_pelvis/pelvis_tx/value	/jointset/ground_pelvis/pelvis_ty/value	/jointset/hip_r/hip_flexion_r/value	/jointset/hip_r/hip_adduction_r/value	/jointset/hip_r/hip_rotation_r/value	/jointset/back/lumbar_extension/value	/jointset/patellofemoral_r/patellar_flexion_r/value	/jointset/knee_r/knee_flexion_r/value	/jointset/knee_r/knee_adduction_r/value	/jointset/knee_r/knee_rotation_r/value	/jointset/ankle_r/ankle_angle_r/value	/jointset/subtalar_r/subtalar_angle_r/value	/jointset/ground_pelvis/pelvis_tilt/speed	/jointset/ground_pelvis/pelvis_tx/speed	/jointset/ground_pelvis/pelvis_ty/speed	/jointset/hip_r/hip_flexion_r/speed	/jointset/hip_r/hip_adduction_r/speed	/jointset/hip_r/hip_rotation_r/speed	/jointset/back/lumbar_extension/speed	/jointset/patellofemoral_r/patellar_flexion_r/speed	/jointset/knee_r/knee_flexion_r/speed	/jointset/knee_r/knee_adduction_r/speed	/jointset/knee_r/knee_rotation_r/speed	/jointset/ankle_r/ankle_angle_r/speed	/jointset/subtalar_r/subtalar_angle_r/speed	/forceset/tau_hip_flexion_r	/forceset/tau_hip_adduction_r	/forceset/tau_hip_rotation_r	/forceset/tau_knee_flexion_r	/forceset/tau_ankle_angle_r	/forceset/tau_subtalar_angle_r	/forceset/tau_lumbar_extension	lambda_cid13_p0	lambda_cid14_p0	lambda_cid14_p1	lambda_cid14_p2	lambda_cid14_p3	lambda_cid14_p4	lambda_cid14_p5	/jointset/ground_pelvis/pelvis_tilt/accel	/jointset/ground_pelvis/pelvis_tx/accel	/jointset/ground_pelvis/pelvis_ty/accel	/jointset/hip_r/hip_flexion_r/accel	/jointset/hip_r/hip_adduction_r/accel	/jointset/hip_r/hip_rotation_r/accel	/jointset/back/lumbar_extension/accel	/jointset/patellofemoral_r/patellar_flexion_r/accel	/jointset/knee_r/knee_flexion_r/accel	/jointset/knee_r/knee_adduction_r/accel	/jointset/knee_r/knee_rotation_r/accel	/jointset/ankle_r/ankle_angle_r/accel	/jointset/subtalar_r/subtalar_angle_r/accel	gamma_cid13_p0	gamma_cid14_p0	gamma_cid14_p1	gamma_cid14_p2	gamma_cid14_p3	gamma_cid14_p4	gamma_cid14_p5
0.5	-0.1596039508687295	0.0208658539937062	0.7975105308537113	0.9393900333789483	-0.2198113052171214	-0.1305263829948423	-0.6528274562926315	0.9826317496210198	0.982631749621023	-0.06947284875777003	0.1745306695946705	0.2987421632401835	0.1451979784796323	-0.4217618007590296	-0.2097852017386303	-0.539028741411104	1.996032290758108	-0.03616134502626179	0.1983120432566775	-0.7343674204874173	2.003921495363373	2.003921495363379	-0.4255754277046425	-8.6260540018322e-05	0.5319870596786603	0.1593112724674723	-0.2110349509309555	0.005549146293329504	0.0158245969850002	-0.2851970571364061	-0.004119027254673977	0.006528227960619389	0.2488605479847048	-7.187178559977792	-43.27102048758079	-3.454005335220426	-0.4977269388909497	-3.867344463255647	-640.4558425467474	65.8398807438008	0.4116117455574625	0.6347922354886895	-0.4402848074081656	-1.355488223806917	-0.1968221070178627	-0.5049588633944683	1.928080605556146	-1.415300403083607	-1.415300403083604	0.5066530655004154	-0.03098520506727627	-0.6394439731159528	-0.4043056882681482	-1.098868664401222e-07	1.133874532733397e-08	1.583521484361227e-06	-2.57581141424103e-07	-1.67686561168532e-07	-2.015208001338815e-07	1.092894537723863e-06
0.51	-0.1638000843526181	0.0187999415944192	0.7920995188682919	0.9592794066447762	-0.2201832465787893	-0.1285699210673988	-0.6600742080135067	1.002597012937374	1.002597012937356	-0.07370279944468053	0.1745302757136003	0.3040289406675864	0.1467695309250805	-0.4173983654342481	-0.20337832255225	-0.5430488225336499	1.981567287439851	-0.03822809955188132	0.1930555180522428	-0.7149002030498479	1.988859198024187	1.988859198024191	-0.4202983152660477	-6.114641359330769e-06	0.5252825019347187	0.1549425402014877	-0.2178620193093654	0.005450423043375664	0.01614190695823466	-0.290521669210048	-0.005037477446196417	0.007376713507339368	0.2551801640829291	-6.277768214256992	-43.86618121826827	-3.289564907284886	-0.409893061662606	-3.900736171146569	-645.9425121507583	66.86587823098698	0.458703814060119	0.6464286556109473	-0.3641763924665162	-1.533252269207201	-0.211606904741052	-0.5248353725425242	1.968450408521552	-1.59247414731099	-1.592474147311357	0.5559635683139292	0.0256189707814356	-0.6989090260978958	-0.4612981200825083	-7.126350243040068e-08	1.046160789535712e-07	1.918233112805729e-06	4.912892364151265e-07	-2.511319557697621e-07	-1.49896689328989e-07	1.347108465775694e-06
0.52	-0.1679505846056346	0.01679865656607557	0.7866520447460894	0.979015880700748	-0.2205758564415969	-0.1266637915967117	-0.6671238059408727	1.022403497330723	1.022403497330719	-0.07787643436015293	0.1745303041882101	0.309246083047337	0.148295767823005	-0.4126351545846003	-0.1968597275499598	-0.5463211687677272	1.965452448786711	-0.04029504525378309	0.1882455519048241	-0.6949366617857069	1.972165710766005	1.972165710766007	-0.4143122734164549	-1.789404743437698e-06	0.5180600501481923	0.1502481629627475	-0.224689087687765	0.005351699793424936	0.01645921693157863	-0.2958462812836755	-0.005955927637718135	0.008225199054063102	0.2614997801811623	-5.432944214594223	-44.45685081141395	-3.114120528280526	-0.3354827793521726	-3.966948100255384	-651.3946389808475	67.92455620610323	0.4915668505307186	0.6571353986706753	-0.290737829714432	-1.685455290783478	-0.1968603422742959	-0.4156470519912642	2.027345370870493	-1.741538386882704	-1.741538386882703	0.6484389476999676	-0.0461493374758876	-0.7430227816328618	-0.4694346828192806	-5.629700643867861e-08	1.170745417180045e-07	1.831618125922005e-06	5.823149788344121e-07	-2.489783248990447e-07	-1.33538302142562e-07	1.32354807404427e-06
0.53	-0.1720515169723054	0.0148630089539079	0.7811756054558203	0.9985831920294682	-0.2209889073384543	-0.1248040404538657	-0.6739714034275148	1.042034998036892	1.042034998036875	-0.08198751995969784	0.1745300368519482	0.3143885088426496	0.1497738023393834	-0.4074869547944687	-0.1902610545959609	-0.5488389333184978	1.947748167727271	-0.04230400027586319	0.1837307104749697	-0.6745157067917733	1.953868682761063	1.953868682761063	-0.4078458739808869	-4.45929387759589e-05	0.5103443592956299	0.1453223273666864	-0.2315159457044787	0.006196973428194078	0.01666565121778836	-0.3010307827206978	-0.007098099920600161	0.008474805105529571	0.2677385200494169	-4.652866309111912	-45.18159672388317	-3.277738553659648	-0.1436315896610547	-3.81573193164247	-656.9141891447474	68.24088637620308	0.5361190814865315	0.6624947174733954	-0.2131573618196848	-1.85214290465813	-0.2010640021420091	-0.4655731639436925	2.05953987629871	-1.913637476078867	-1.913637476079127	0.6548194511962671	0.01789736142730558	-0.7980049322879285	-0.5092655165806113	-4.462932498774862e-08	1.269824574994966e-07	1.753926210684452e-06	6.367930591716304e-07	-2.477116378480987e-07	-1.18785280166125e-07	1.306614291552156e-06
0.54	-0.1760990328334286	0.0129936003660219	0.7756778162012313	1.017965614869368	-0.2214216779695284	-0.1229886718204047	-0.6806127775016884	1.061475557969251	1.061475557969224	-0.08603212576293903	0.1745295901248869	0.3194513451903924	0.1512015569960849	-0.4019518534750515	-0.1836119226936279	-0.5505911616317063	1.928474751022473	-0.04423899209663316	0.1793690500266718	-0.6536919792920803	1.933977556004965	1.933977556004963	-0.4010163141568795	-3.766756103817211e-05	0.5021421606342681	0.1401921910273825	-0.238342803721182	0.0070422470629766	0.01687208550387027	-0.3062152841577341	-0.008240272203478814	0.008724411157021173	0.2739772599176807	-3.937371809007742	-45.9038996637841	-3.434468146298445	0.03974316203433879	-3.692952580437788	-662.4136645676713	68.57664054132174	0.5689471563878018	0.6672271883374848	-0.1376305822019809	-1.999282419855092	-0.1820677020122593	-0.385010855679937	2.107899872022375	-2.060358137113986	-2.060358137113986	0.7210710253878204	-0.03620355512186735	-0.840324343392718	-0.5102948314677993	-3.661139579471629e-08	1.340684915126281e-07	1.686106630034153e-06	6.508354282691144e-07	-2.474262503424317e-07	-1.058084069326558e-07	1.297012076729068e-06
0.55	-0.1800893928401879	0.01119087657133179	0.7701663194455156	1.037147734501461	-0.2218733484365925	-0.1212159968541326	-0.6870440066072938	1.080709499849807	1.080709499849788	-0.09000672594928914	0.1745292521701434	0.324429880887375	0.1525771528715836	-0.3960606114535258	-0.1769292442951372	-0.5515799012081944	1.907700396352482	-0.04607779332612647	0.1751990194252253	-0.6325062318835226	1.912564307489779	1.912564307489777	-0.3938499765731662	-3.159070534257448e-05	0.4934978743980689	0.1349049039416584	-0.2448787790750953	0.007460263130275742	0.01703303328081951	-0.3116007022741009	-0.009277978411831854	0.009124547943924246	0.2799259475214145	-3.285830939995772	-46.57570691545852	-3.493679784817	0.1809539922209214	-3.560834566166845	-667.8373871867556	69.14967450444094	0.6081621106452074	0.6692775038707416	-0.06027214589927189	-2.153808454617927	-0.1820232882612384	-0.4280983849990471	2.131053667099069	-2.218778653501377	-2.218778653501498	0.7226838938368141	0.01894999433662801	-0.8865895208768086	-0.5409217286439594	-2.807068110572791e-08	1.407594166627372e-07	1.614242967742574e-06	6.70030626248654e-07	-2.458008368699893e-07	-9.381712247978481e-08	1.284236893608867e-06
0.5600000000000001	-0.1840190505496096	0.00945507742827967	0.7646487799939297	1.056114651294045	-0.2223428543069209	-0.1194840420384023	-0.6932619499404478	1.099721915156247	1.099721915156252	-0.09390800900600518	0.17452896232163	0.3293199519705673	0.1538992806599212	-0.3898113940075884	-0.1702269923660295	-0.5517997008057509	1.885434183120617	-0.04780607274934941	0.1712250199188952	-0.6110348248018981	1.889672241183372	1.889672241183369	-0.3863528882305012	-2.804631279234004e-05	0.4844492378761379	0.1294985735951637	-0.251414754429001	0.007878279197559707	0.01719398105781013	-0.3169861203904597	-0.01031568462018865	0.009524684730800764	0.2858746351251564	-2.696892310132142	-47.245991569763	-3.54534437387382	0.3126471944790047	-3.457659229865282	-673.2627463158304	69.74393487778639	0.6405422412701227	0.6711418944608594	0.01615741358437369	-2.297654132230018	-0.1599633407581467	-0.345804636656634	2.165031806635742	-2.356121695358306	-2.356121695358304	0.7872211771781557	-0.03671004775102035	-0.9211944005391008	-0.5341034836218811	-1.89026238215923e-08	1.469762111772194e-07	1.53752640748146e-06	6.954092188866599e-07	-2.425673922374164e-07	-8.300854456363162e-08	1.267654148532128e-06
0.5700000000000001	-0.1878845294703835	0.007786326713930615	0.7591328667523273	1.074851692342902	-0.2228290014258024	-0.1177908560144146	-0.6992638466501409	1.118498223897792	1.118498223897777	-0.09773289733330363	0.1745285500319263	0.3341176326297606	0.1551669301858686	-0.3832289088307583	-0.1635262195652977	-0.5512552401290265	1.861738049906147	-0.04940171752908346	0.1674374110048696	-0.5893134142685178	1.865357944381816	1.865357944381824	-0.3785842390734557	-5.488882889044195e-05	0.4750290958544457	0.1240202883861809	-0.2577339570517725	0.0084227292600055	0.01727479650052379	-0.3223295245059712	-0.01142674162383703	0.009795802085161755	0.2915679337815514	-2.16943838039584	-47.94605748099324	-3.666772615430919	0.4651883854595837	-3.249933701972238	-678.55372623549	70.17397990787582	0.6754440628834839	0.6690364659722414	0.09273112365788465	-2.440967477485855	-0.155960966080307	-0.3914959435292565	2.180361106928385	-2.503815340838677	-2.503815340837168	0.7779456158624004	0.01445333791412324	-0.9611294775980018	-0.5560300853532101	-1.059798366246572e-08	1.521636423180696e-07	1.464127829975698e-06	7.135791807609578e-07	-2.3903214842515e-07	-7.355677724984923e-08	1.251844586620219e-06
0.58	-0.1916825150579903	0.006184482026207355	0.7536262262632806	1.093344697147329	-0.2233304241763827	-0.1161347974645138	-0.7050475961684519	1.137024443337665	1.137024443337625	-0.1014788474028503	0.1745278942553829	0.3388193707938141	0.1563795290505627	-0.3763127273741664	-0.1568457870408705	-0.5499451502946346	1.836626934234462	-0.05086119908879184	0.1637995251006966	-0.5674053865255673	1.839654380848883	1.839654380848901	-0.370565236680626	-7.674368685336392e-05	0.4652607388482051	0.1184884413445287	-0.2640531596745342	0.008967179322460071	0.01735561194313117	-0.3276729286214945	-0.01253779862748343	0.01006691943953997	0.2972612324379558	-1.702499105393513	-48.64603119184598	-3.781867043387733	0.6095050892571681	-3.068965358164159	-683.8658801529778	70.62190953022834	0.707281497222503	0.6670738391999317	0.1692832451178888	-2.580650623673028	-0.1327306967530039	-0.315860034686057	2.202355248549781	-2.633975041633754	-2.633975041633667	0.8372918243349865	-0.03571251612403695	-0.9908373974487658	-0.5448158501557285	-3.417793712653296e-09	1.560105072048873e-07	1.395050346290858e-06	7.223611583848452e-07	-2.351038638207247e-07	-6.587201909264278e-08	1.237041960922972e-06
0.59	-0.1954097866524686	0.004649285749939821	0.7481364893016329	1.111579732385503	-0.2238457069018067	-0.1145142891923292	-0.7106114284449553	1.155286870279447	1.155286870279423	-0.105143437362783	0.174526885662948	0.3434217991176212	0.1575366738344663	-0.369091552088447	-0.1502014310444628	-0.5478756981649091	1.810154851029612	-0.05217141818070309	0.1603274984027896	-0.5453464946524659	1.812613214266578	1.812613214266589	-0.3623149898029186	-0.0001271094006544915	0.4551770942234641	0.1129381891019605	-0.2700636152777972	0.009392696067188863	0.01737076870007891	-0.3330428070418122	-0.0136081173047609	0.01033631000906188	0.302633377137769	-1.29524962348005	-49.32283751856335	-3.888396149098329	0.7464478072950503	-2.838670836063074	-688.989148429897	71.07880250842204	0.7370624582981288	0.6618754946067417	0.2447455034372016	-2.714253641561875	-0.1264296445278119	-0.3590948476810701	2.209842275095629	-2.771856610450318	-2.771856610451489	0.8247081618695074	0.01018013370392614	-1.024331905991683	-0.5601814386474688	3.338826570382581e-09	1.587910244669697e-07	1.324810193640481e-06	7.278457417949576e-07	-2.301435855934267e-07	-5.890852613033937e-08	1.219080094003237e-06
